<?xml version="1.0" encoding="UTF-8" standalone="no"?>
<svg width="300" height="600" viewBox="0 0 300 600" xmlns="http://www.w3.org/2000/svg">
  <!-- Phone Frame -->
  <rect x="10" y="10" width="280" height="580" rx="20" ry="20" fill="#333" />
  <rect x="20" y="20" width="260" height="560" rx="15" ry="15" fill="#fff" />
  
  <!-- App Header -->
  <rect x="20" y="20" width="260" height="60" fill="#1a237e" />
  <text x="40" y="55" font-family="Arial" font-size="18" fill="white">अभंग कथा संग्रह</text>
  <circle cx="250" cy="50" r="15" fill="#fff" opacity="0.2" />
  <circle cx="220" cy="50" r="15" fill="#fff" opacity="0.2" />
  
  <!-- Content Area -->
  <rect x="30" y="90" width="240" height="100" rx="5" ry="5" fill="#f5f5f5" />
  <text x="45" y="115" font-family="Arial" font-size="14" fill="#333">नामाचा रहस्यमय द्वार</text>
  <rect x="40" y="130" width="100" height="40" rx="20" ry="20" fill="#1a237e" />
  <text x="55" y="155" font-family="Arial" font-size="12" fill="white">संत निवृत्तिनाथ</text>
  <rect x="150" y="130" width="100" height="40" rx="20" ry="20" fill="#ff8f00" />
  <text x="165" y="155" font-family="Arial" font-size="12" fill="white">निवृ हरी कथा</text>
  
  <!-- Story Content -->
  <rect x="30" y="200" width="240" height="320" rx="5" ry="5" fill="#fff" stroke="#eee" stroke-width="1" />
  <line x1="40" y1="220" x2="260" y2="220" stroke="#eee" stroke-width="1" />
  <line x1="40" y1="240" x2="260" y2="240" stroke="#eee" stroke-width="1" />
  <line x1="40" y1="260" x2="260" y2="260" stroke="#eee" stroke-width="1" />
  <line x1="40" y1="280" x2="260" y2="280" stroke="#eee" stroke-width="1" />
  <line x1="40" y1="300" x2="260" y2="300" stroke="#eee" stroke-width="1" />
  <line x1="40" y1="320" x2="260" y2="320" stroke="#eee" stroke-width="1" />
  <line x1="40" y1="340" x2="260" y2="340" stroke="#eee" stroke-width="1" />
  <line x1="40" y1="360" x2="260" y2="360" stroke="#eee" stroke-width="1" />
  <line x1="40" y1="380" x2="260" y2="380" stroke="#eee" stroke-width="1" />
  <line x1="40" y1="400" x2="260" y2="400" stroke="#eee" stroke-width="1" />
  <line x1="40" y1="420" x2="260" y2="420" stroke="#eee" stroke-width="1" />
  <line x1="40" y1="440" x2="260" y2="440" stroke="#eee" stroke-width="1" />
  <line x1="40" y1="460" x2="260" y2="460" stroke="#eee" stroke-width="1" />
  <line x1="40" y1="480" x2="260" y2="480" stroke="#eee" stroke-width="1" />
  <line x1="40" y1="500" x2="260" y2="500" stroke="#eee" stroke-width="1" />
  
  <!-- Bottom Navigation -->
  <rect x="20" y="530" width="260" height="50" fill="#ff8f00" />
  <circle cx="60" cy="555" r="15" fill="#fff" opacity="0.3" />
  <circle cx="120" cy="555" r="15" fill="#fff" opacity="0.3" />
  <circle cx="180" cy="555" r="15" fill="#fff" opacity="0.3" />
  <circle cx="240" cy="555" r="15" fill="#fff" opacity="0.3" />
</svg>